Coordinates
version=1
nRows=4
nColumns=107
inDegrees=yes

Units are S.I. units (second, meters, Newtons, ...)
If the header above contains a line with 'inDegrees', this indicates whether rotational values are in degrees (yes) or radians (no).

endheader
time	sternoclavicular_r2	sternoclavicular_r3	unrotscap_r3	unrotscap_r2	acromioclavicular_r2	acromioclavicular_r3	acromioclavicular_r1	unrothum_r1	unrothum_r3	unrothum_r2	elv_angle	shoulder_elv	shoulder1_r2	shoulder_rot	elbow_flexion	pro_sup	deviation	flexion	proximal_distal_r1	proximal_distal_r3	cmc_flexion	cmc_abduction	mp_flexion	ip_flexion	mcp2_flexion	mcp2_abduction	pm2_flexion	md2_flexion	mcp3_flexion	mcp3_abduction	pm3_flexion	md3_flexion	mcp4_flexion	mcp4_abduction	pm4_flexion	md4_flexion	mcp5_flexion	mcp5_abduction	pm5_flexion	md5_flexion	bicpt_tx	bicpt_ty	bicpt_tz	bicpt2_tx	bicpt2_ty	bicpt2_tz	ptpt_tx	ptpt_ty	ptpt_tz	FCUpt_tx	FCUpt_ty	FCUpt_tz	EDCpt_tx	EDCpt_ty	EDCpt_tz	APLpt_tx	APLpt_ty	APLpt_tz	FPLpt_tx	FPLpt_ty	FPLpt_tz	FPLpt2_tx	FPLpt2_ty	FPLpt2_tz	PEC1pt2_tx	PEC1pt2_ty	PEC1pt2_tz	PEC1pt3_tx	PEC1pt3_ty	PEC1pt3_tz	PEC2pt2_tx	PEC2pt2_ty	PEC2pt2_tz	PEC2pt3_tx	PEC2pt3_ty	PEC2pt3_tz	PEC3pt2_tx	PEC3pt2_ty	PEC3pt2_tz	PEC3pt3_tx	PEC3pt3_ty	PEC3pt3_tz	DELT2pt2a_tx	DELT2pt2a_ty	DELT2pt2a_tz	DELT2pt2_tx	DELT2pt2_ty	DELT2pt2_tz	LAT1pt2_tx	LAT1pt2_ty	LAT1pt2_tz	LAT1pt3_tx	LAT1pt3_ty	LAT1pt3_tz	LAT2pt2_tx	LAT2pt2_ty	LAT2pt2_tz	LAT2pt3_tx	LAT2pt3_ty	LAT2pt3_tz	LAT3pt2_tx	LAT3pt2_ty	LAT3pt2_tz	LAT3pt3_tx	LAT3pt3_ty	LAT3pt3_tz
      1.43333333	     -0.32003204	      0.13555047	     -0.13555047	      0.32003204	     -0.06479998	      0.52369063	      0.23539533	     -0.23539533	     -0.52369063	      0.06479998	     99.22378303	     75.77042954	     -1.73178171	    -22.64613292	     28.49719144	     14.90762821	     -0.03565989	     -0.69936538	     -0.04943552	     -0.34968269	      1.48552498	      3.68835628	    -33.10161729	    -30.56189199	    -15.07893530	      8.40419126	     14.59824113	    -26.78538179	     44.67326967	     11.00340138	     78.40305481	     59.46655694	     33.93650480	     -6.03432623	     85.04859659	     36.06175382	    -28.30375586	    -12.40894685	     -9.69797836	      4.99410766	      0.00084260	     -0.03086621	     -0.00482610	      0.01580732	     -0.01794140	     -0.00970728	      0.00644849	     -0.06561225	     -0.00125089	      0.00535113	     -0.18392765	      0.00002879	     -0.00178891	      0.00045668	      0.00015594	      0.00030596	      0.00012238	      0.00061191	      0.00039162	      0.00117487	      0.00066087	      0.00003116	     -0.00003591	     -0.00004309	      0.00248359	      0.00871361	      0.00606164	     -0.00812428	      0.01961614	     -0.01860587	      0.00248359	      0.00871361	      0.00606164	      0.00054723	      0.01818492	     -0.00955550	      0.00393290	      0.00484553	      0.01593076	      0.00000000	      0.00767746	      0.00000000	     -0.00711401	     -0.03287598	     -0.00632984	      0.01525639	     -0.00051457	     -0.00427095	     -0.00088399	      0.01481734	     -0.00606164	      0.00244149	      0.02138412	     -0.01767978	     -0.00593536	      0.01283889	     -0.00543022	     -0.01237585	      0.02710900	     -0.03035029	     -0.02323628	      0.01435430	     -0.00728239	     -0.01540667	      0.03131847	     -0.03792734
      1.46666667	     -0.31981531	      0.13545867	     -0.13545867	      0.31981531	     -0.06475610	      0.52333598	      0.23523592	     -0.23523592	     -0.52333598	      0.06475610	     99.22283839	     75.71911789	     -1.73176522	    -22.63703283	     28.48168543	     14.90618301	     -0.03569890	     -0.69927560	     -0.04949154	     -0.34963780	      1.48592073	      3.68848764	    -33.10144928	    -30.56180777	    -15.07496999	      8.40302928	     14.59889060	    -26.78479836	     44.67450116	     11.00327388	     78.40301642	     59.46651066	     33.93793687	     -6.03434296	     85.04866826	     36.06167165	    -28.30062777	    -12.40947867	     -9.69698361	      4.99418640	      0.00084209	     -0.03086444	     -0.00482582	      0.01580723	     -0.01793719	     -0.00970738	      0.00644860	     -0.06561218	     -0.00125077	      0.00535100	     -0.18392767	      0.00002883	     -0.00178874	      0.00045663	      0.00015593	      0.00030595	      0.00012238	      0.00061191	      0.00039162	      0.00117486	      0.00066086	      0.00003117	     -0.00003592	     -0.00004311	      0.00248191	      0.00870771	      0.00605753	     -0.00811878	      0.01960285	     -0.01859327	      0.00248191	      0.00870771	      0.00605753	      0.00054686	      0.01817260	     -0.00954903	      0.00393095	      0.00484224	      0.01592596	      0.00000000	      0.00766699	      0.00000000	     -0.00710919	     -0.03285371	     -0.00632115	      0.01525146	     -0.00051428	     -0.00426742	     -0.00088339	      0.01480731	     -0.00605753	      0.00243984	      0.02136964	     -0.01766781	     -0.00593134	      0.01283019	     -0.00542654	     -0.01236747	      0.02709064	     -0.03032974	     -0.02322055	      0.01434458	     -0.00727745	     -0.01539623	      0.03129726	     -0.03790166
      1.50000000	     -0.32253125	      0.13660901	     -0.13660901	      0.32253125	     -0.06530602	      0.52778026	      0.23723359	     -0.23723359	     -0.52778026	      0.06530602	     98.67662667	     76.36214009	     -1.72223203	    -19.87155978	     28.57897936	     13.35332155	      0.00303245	     -0.61755627	      0.00410875	     -0.30877813	      2.13580740	      3.48388091	    -32.75277947	    -31.73693100	    -16.38283779	      8.62808010	     15.59535207	    -28.31133918	     44.51612871	     11.37351260	     78.85702721	     59.56430916	     34.07521192	     -5.43380179	     84.64210928	     37.57242814	    -27.59317406	    -12.46111499	     -9.91221793	      4.99776780	      0.00084530	     -0.03087559	     -0.00482761	      0.01571242	     -0.01796362	     -0.00981683	      0.00656334	     -0.06553799	     -0.00112568	      0.00520706	     -0.18394857	      0.00007010	     -0.00160239	      0.00040586	      0.00014530	      0.00031246	      0.00012499	      0.00062493	      0.00039995	      0.00119986	      0.00067492	      0.00003836	     -0.00005093	     -0.00006112	      0.00250298	      0.00878165	      0.00610898	     -0.00818773	      0.01976933	     -0.01875116	      0.00250298	      0.00878165	      0.00610898	      0.00055150	      0.01832693	     -0.00963012	      0.00395532	      0.00488337	      0.01598566	      0.00000000	      0.00779868	      0.00000000	     -0.00716956	     -0.03313271	     -0.00643048	      0.01370207	     -0.00042799	     -0.00325368	     -0.00089089	      0.01493305	     -0.00610898	      0.00246056	      0.02155111	     -0.01781785	     -0.00598171	      0.01293915	     -0.00547262	     -0.01247249	      0.02732070	     -0.03058731	     -0.02341774	      0.01446640	     -0.00733926	     -0.01552698	      0.03156304	     -0.03822353
      1.53333333	     -0.32230431	      0.13651289	     -0.13651289	      0.32230431	     -0.06526007	      0.52740890	      0.23706667	     -0.23706667	     -0.52740890	      0.06526007	     98.68676625	     76.30840954	     -1.72240900	    -19.85617317	     28.57291068	     13.35464832	      0.00296137	     -0.61745659	      0.00401181	     -0.30872830	      2.13506188	      3.48373608	    -32.75317304	    -31.73691221	    -16.37611323	      8.62796491	     15.59632924	    -28.31037522	     44.51783288	     11.37341086	     78.85693669	     59.56426320	     34.07715381	     -5.43379556	     84.64222772	     37.57223585	    -27.59009984	    -12.46125226	     -9.91118118	      4.99782313	      0.00084510	     -0.03087489	     -0.00482750	      0.01571251	     -0.01796197	     -0.00981674	      0.00656324	     -0.06553805	     -0.00112579	      0.00520718	     -0.18394855	      0.00007007	     -0.00160255	      0.00040590	      0.00014531	      0.00031246	      0.00012499	      0.00062493	      0.00039995	      0.00119986	      0.00067492	      0.00003781	     -0.00005084	     -0.00006101	      0.00250122	      0.00877547	      0.00610468	     -0.00818196	      0.01975542	     -0.01873797	      0.00250122	      0.00877547	      0.00610468	      0.00055112	      0.01831403	     -0.00962335	      0.00395329	      0.00487993	      0.01598071	      0.00000000	      0.00778763	      0.00000000	     -0.00716452	     -0.03310940	     -0.00642131	      0.01369312	     -0.00042752	     -0.00324842	     -0.00089027	      0.01492255	     -0.00610468	      0.00245883	      0.02153595	     -0.01780531	     -0.00597750	      0.01293005	     -0.00546877	     -0.01246372	      0.02730148	     -0.03056578	     -0.02340127	      0.01445622	     -0.00733409	     -0.01551606	      0.03154084	     -0.03819663
